<mxfile host="app.diagrams.net" modified="2022-09-16T02:07:42.082Z" agent="5.0 (Windows)" etag="Rkud4mHMDOXnt-V4qYyw" version="20.3.0" type="github">
  <diagram name="Page-1" id="74e2e168-ea6b-b213-b513-2b3c1d86103e">
    <mxGraphModel dx="677" dy="363" grid="1" gridSize="10" guides="1" tooltips="1" connect="1" arrows="1" fold="1" page="1" pageScale="1" pageWidth="1100" pageHeight="850" background="none" math="0" shadow="0">
      <root>
        <mxCell id="0" />
        <mxCell id="1" parent="0" />
        <mxCell id="77e6c97f196da883-1" value="数据入库流程" style="swimlane;html=1;childLayout=stackLayout;startSize=20;rounded=0;shadow=0;labelBackgroundColor=none;strokeWidth=1;fontFamily=Verdana;fontSize=8;align=center;" parent="1" vertex="1">
          <mxGeometry x="120" width="565" height="550" as="geometry" />
        </mxCell>
        <mxCell id="77e6c97f196da883-2" value="用户线下" style="swimlane;html=1;startSize=20;" parent="77e6c97f196da883-1" vertex="1">
          <mxGeometry y="20" width="190" height="530" as="geometry" />
        </mxCell>
        <mxCell id="vI-kmrkHsvOEpH3ryHi2-2" value="开始" style="ellipse;whiteSpace=wrap;html=1;" vertex="1" parent="77e6c97f196da883-2">
          <mxGeometry x="30" y="30" width="70" height="30" as="geometry" />
        </mxCell>
        <mxCell id="vI-kmrkHsvOEpH3ryHi2-3" value="&lt;div&gt;采集数据并整理&lt;/div&gt;&lt;div&gt;格式依照(用户上传格式试行版)&lt;br&gt;&lt;/div&gt;" style="whiteSpace=wrap;html=1;" vertex="1" parent="77e6c97f196da883-2">
          <mxGeometry x="12.5" y="80" width="105" height="45" as="geometry" />
        </mxCell>
        <mxCell id="vI-kmrkHsvOEpH3ryHi2-4" value="" style="edgeStyle=orthogonalEdgeStyle;rounded=0;orthogonalLoop=1;jettySize=auto;html=1;" edge="1" parent="77e6c97f196da883-2" source="vI-kmrkHsvOEpH3ryHi2-2" target="vI-kmrkHsvOEpH3ryHi2-3">
          <mxGeometry relative="1" as="geometry" />
        </mxCell>
        <mxCell id="77e6c97f196da883-3" value="后台维护界面" style="swimlane;html=1;startSize=20;" parent="77e6c97f196da883-1" vertex="1">
          <mxGeometry x="190" y="20" width="190" height="530" as="geometry" />
        </mxCell>
        <mxCell id="vI-kmrkHsvOEpH3ryHi2-7" value="&lt;div&gt;后台维护内容: &lt;br&gt;&lt;/div&gt;&lt;div&gt;1. README&lt;/div&gt;&lt;div&gt;2. 元数据&lt;/div&gt;&lt;div&gt;3. 其他信息(作者/类别等)&lt;br&gt;&lt;/div&gt;" style="whiteSpace=wrap;html=1;" vertex="1" parent="77e6c97f196da883-3">
          <mxGeometry x="10" y="180" width="150" height="80" as="geometry" />
        </mxCell>
        <mxCell id="vI-kmrkHsvOEpH3ryHi2-9" value="&lt;div&gt;元数据授权&lt;/div&gt;&lt;div&gt;公开访问, 用户访问, 禁止访问等&lt;br&gt;&lt;/div&gt;" style="whiteSpace=wrap;html=1;" vertex="1" parent="77e6c97f196da883-3">
          <mxGeometry y="320" width="120" height="60" as="geometry" />
        </mxCell>
        <mxCell id="vI-kmrkHsvOEpH3ryHi2-10" value="" style="edgeStyle=orthogonalEdgeStyle;rounded=0;orthogonalLoop=1;jettySize=auto;html=1;" edge="1" parent="77e6c97f196da883-3" source="vI-kmrkHsvOEpH3ryHi2-7" target="vI-kmrkHsvOEpH3ryHi2-9">
          <mxGeometry relative="1" as="geometry" />
        </mxCell>
        <mxCell id="vI-kmrkHsvOEpH3ryHi2-13" value="&lt;div&gt;元数据维护&lt;/div&gt;&lt;div&gt;推荐/热榜/等等&lt;br&gt;&lt;/div&gt;" style="whiteSpace=wrap;html=1;" vertex="1" parent="77e6c97f196da883-3">
          <mxGeometry x="35" y="400" width="120" height="60" as="geometry" />
        </mxCell>
        <mxCell id="vI-kmrkHsvOEpH3ryHi2-14" value="" style="edgeStyle=orthogonalEdgeStyle;rounded=0;orthogonalLoop=1;jettySize=auto;html=1;" edge="1" parent="77e6c97f196da883-3" source="vI-kmrkHsvOEpH3ryHi2-7" target="vI-kmrkHsvOEpH3ryHi2-13">
          <mxGeometry relative="1" as="geometry">
            <Array as="points">
              <mxPoint x="150" y="325" />
              <mxPoint x="130" y="325" />
            </Array>
          </mxGeometry>
        </mxCell>
        <mxCell id="77e6c97f196da883-4" value="后台维护人员" style="swimlane;html=1;startSize=20;" parent="77e6c97f196da883-1" vertex="1">
          <mxGeometry x="380" y="20" width="185" height="530" as="geometry" />
        </mxCell>
        <mxCell id="vI-kmrkHsvOEpH3ryHi2-5" value="手动上传文件到FTP服务器并记录FTP路径" style="whiteSpace=wrap;html=1;" vertex="1" parent="77e6c97f196da883-4">
          <mxGeometry x="20" y="72.5" width="120" height="60" as="geometry" />
        </mxCell>
        <mxCell id="vI-kmrkHsvOEpH3ryHi2-6" value="" style="edgeStyle=orthogonalEdgeStyle;rounded=0;orthogonalLoop=1;jettySize=auto;html=1;" edge="1" parent="77e6c97f196da883-1" source="vI-kmrkHsvOEpH3ryHi2-3" target="vI-kmrkHsvOEpH3ryHi2-5">
          <mxGeometry relative="1" as="geometry" />
        </mxCell>
        <mxCell id="vI-kmrkHsvOEpH3ryHi2-8" value="" style="edgeStyle=orthogonalEdgeStyle;rounded=0;orthogonalLoop=1;jettySize=auto;html=1;" edge="1" parent="77e6c97f196da883-1" source="vI-kmrkHsvOEpH3ryHi2-5" target="vI-kmrkHsvOEpH3ryHi2-7">
          <mxGeometry relative="1" as="geometry">
            <Array as="points">
              <mxPoint x="460" y="180" />
              <mxPoint x="280" y="180" />
            </Array>
          </mxGeometry>
        </mxCell>
      </root>
    </mxGraphModel>
  </diagram>
</mxfile>
